<?xml version="1.0" encoding="UTF-8"?>
<svg xmlns="http://www.w3.org/2000/svg" xmlns:xlink="http://www.w3.org/1999/xlink" width="2563.07pt" height="650.14pt" viewBox="0 0 2563.07 650.14" version="1.1">
<defs>
<clipPath id="clip1">
  <path d="M 1404 137 L 1917 137 L 1917 650.140625 L 1404 650.140625 Z M 1404 137 "/>
</clipPath>
<clipPath id="clip2">
  <path d="M 2471 557 L 2563.070313 557 L 2563.070313 649 L 2471 649 Z M 2471 557 "/>
</clipPath>
<clipPath id="clip3">
  <path d="M 1404 137 L 1917 137 L 1917 650.140625 L 1404 650.140625 Z M 1404 137 "/>
</clipPath>
<clipPath id="clip4">
  <path d="M 2471 557 L 2563.070313 557 L 2563.070313 649 L 2471 649 Z M 2471 557 "/>
</clipPath>
</defs>
<g id="surface1">
<path style=" stroke:none;fill-rule:evenodd;fill:rgb(100%,100%,100%);fill-opacity:1;" d="M 85.109375 552.078125 C 85.109375 489.511719 85.109375 427.433594 85.109375 365.066406 C 87.039063 365.066406 88.726563 365.066406 90.410156 365.066406 C 180.503906 365.066406 270.601563 365.070313 360.695313 365.050781 C 363.441406 365.050781 366.203125 364.921875 368.933594 364.636719 C 391.789063 362.269531 408.335938 342.921875 407.074219 320.09375 C 405.824219 297.5 387.378906 280.21875 364.507813 280.214844 C 272.972656 280.210938 181.433594 280.214844 89.894531 280.214844 C 88.257813 280.214844 86.621094 280.214844 85.050781 280.214844 C 85.050781 219.039063 85.050781 158.492188 85.050781 97.53125 C 86.90625 97.53125 88.570313 97.53125 90.234375 97.53125 C 193.445313 97.53125 296.65625 97.53125 399.867188 97.511719 C 402.609375 97.511719 405.371094 97.363281 408.097656 97.058594 C 429.960938 94.640625 446.988281 75.207031 445.878906 54.011719 C 444.640625 30.3125 426.542969 12.679688 403.410156 12.679688 C 283.019531 12.671875 162.632813 12.675781 42.242188 12.691406 C 40.285156 12.691406 38.296875 12.75 36.371094 13.070313 C 14.449219 16.753906 0.0078125 33.890625 0.0078125 56.183594 C 0.00390625 235.191406 0.00390625 414.203125 0.00390625 593.210938 C 0.00390625 593.867188 -0.0078125 594.527344 0.0078125 595.179688 C 0.488281 617.792969 19.0625 636.648438 41.089844 636.65625 C 163.445313 636.6875 285.800781 636.691406 408.15625 636.648438 C 430.5625 636.636719 450.207031 615.695313 449.035156 593.367188 C 447.761719 569.152344 429.703125 552.078125 405.351563 552.078125 C 300.566406 552.078125 195.78125 552.078125 91 552.078125 C 89.171875 552.078125 87.34375 552.078125 85.109375 552.078125 "/>
<path style=" stroke:none;fill-rule:evenodd;fill:rgb(100%,100%,100%);fill-opacity:1;" d="M 2267.628906 644.933594 C 2274.179688 644.933594 2280.75 645.242188 2287.28125 644.878906 C 2323.121094 642.910156 2357.550781 635.203125 2389.628906 618.621094 C 2427.210938 599.207031 2455.890625 571.136719 2472.601563 531.785156 C 2484.28125 504.28125 2487.359375 475.488281 2484.890625 445.910156 C 2481.789063 408.832031 2467.460938 377.1875 2439.808594 351.886719 C 2419.019531 332.855469 2394.621094 319.835938 2368.738281 309.320313 C 2335.839844 295.960938 2301.46875 287.835938 2266.929688 280.148438 C 2237.648438 273.628906 2208.648438 265.964844 2181.238281 253.445313 C 2173.171875 249.761719 2165.289063 245.472656 2157.808594 240.699219 C 2135.980469 226.761719 2124.421875 206.855469 2123.039063 180.726563 C 2121.570313 152.796875 2130.410156 129.476563 2151.859375 111.285156 C 2167.941406 97.636719 2186.839844 89.796875 2207.339844 85.9375 C 2246.03125 78.65625 2284.058594 82.300781 2321.359375 94.28125 C 2347.921875 102.8125 2371.898438 116.398438 2394.460938 132.644531 C 2409.578125 143.539063 2425.671875 144.589844 2441.730469 135.511719 C 2468.308594 120.484375 2469.199219 83.722656 2443.578125 65.050781 C 2415.75 44.769531 2385.53125 29.09375 2352.570313 18.832031 C 2314.628906 7.015625 2275.699219 2.957031 2236.148438 4.054688 C 2198.839844 5.085938 2163.199219 13.082031 2130.011719 30.597656 C 2096.390625 48.347656 2070.011719 73.410156 2053.230469 107.910156 C 2040.621094 133.855469 2036.351563 161.375 2037.78125 190.011719 C 2038.929688 212.914063 2043.5 234.914063 2054 255.464844 C 2067.808594 282.511719 2089.261719 302.046875 2115.070313 317.21875 C 2144.691406 334.625 2176.898438 345.5625 2209.949219 354.03125 C 2237.589844 361.113281 2265.53125 367.003906 2293.191406 373.972656 C 2315.578125 379.605469 2337.449219 386.851563 2357.550781 398.578125 C 2382.859375 413.339844 2397.730469 434.609375 2399.21875 464.5625 C 2400.96875 499.699219 2386.300781 526.09375 2357.230469 544.960938 C 2343.570313 553.832031 2328.519531 559.570313 2312.589844 562.703125 C 2273.390625 570.410156 2234.558594 567.371094 2196.179688 557.402344 C 2154.480469 546.578125 2118.75 524.625 2086.320313 496.875 C 2073.71875 486.105469 2055.660156 483.933594 2040.730469 491.667969 C 2026.300781 499.140625 2017.191406 515.765625 2018.441406 531.632813 C 2019.539063 545.511719 2026.171875 555.613281 2037.109375 564.160156 C 2104.898438 617.101563 2181.300781 645.210938 2267.628906 644.933594 "/>
<path style=" stroke:none;fill-rule:evenodd;fill:rgb(100%,100%,100%);fill-opacity:1;" d="M 1266.289063 331.539063 C 1267.320313 341.941406 1268.289063 358.84375 1270.769531 375.523438 C 1276.929688 417.074219 1291.25 455.835938 1313 491.757813 C 1325.371094 512.164063 1351.078125 518.257813 1371.351563 506.042969 C 1391.179688 494.105469 1397.429688 468.375 1385.601563 447.914063 C 1381.808594 441.34375 1378.089844 434.699219 1374.839844 427.847656 C 1352.289063 380.25 1345.808594 330.414063 1356.011719 278.824219 C 1367.519531 220.640625 1396.878906 172.828125 1443.550781 136.261719 C 1493.871094 96.839844 1551.371094 80.355469 1614.988281 86.117188 C 1650.601563 89.34375 1683.710938 100.730469 1714.480469 119.011719 C 1735.078125 131.246094 1760.890625 124.585938 1772.988281 104.136719 C 1784.898438 84.011719 1778.191406 58.097656 1757.660156 46.03125 C 1689.929688 6.222656 1617.089844 -8.105469 1539.550781 4.367188 C 1468.050781 15.867188 1406.878906 48.121094 1356.898438 100.617188 C 1297.171875 163.363281 1267.878906 238.640625 1266.289063 331.539063 "/>
<g clip-path="url(#clip1)" clip-rule="nonzero">
<path style=" stroke:none;fill-rule:evenodd;fill:rgb(100%,100%,100%);fill-opacity:1;" d="M 1591.300781 650.140625 C 1603.191406 649.324219 1615.089844 648.621094 1626.960938 647.640625 C 1632.429688 647.1875 1637.878906 646.332031 1643.300781 645.425781 C 1716.078125 633.238281 1778.628906 600.96875 1828.261719 546.472656 C 1906.769531 460.28125 1932.199219 359.371094 1906.28125 245.761719 C 1899.21875 214.796875 1886.570313 185.890625 1870.25 158.636719 C 1860.839844 142.914063 1843.148438 134.8125 1826.050781 138.195313 C 1796.308594 144.078125 1782.078125 175.980469 1797.488281 202.207031 C 1826.71875 251.976563 1837.359375 305.496094 1828.320313 362.457031 C 1819.550781 417.703125 1794.53125 464.882813 1752.699219 502.039063 C 1689.460938 558.199219 1615.910156 576.449219 1533.441406 557.660156 C 1510.070313 552.332031 1488.398438 542.464844 1467.640625 530.429688 C 1453.03125 521.964844 1437.890625 522.363281 1423.671875 531.414063 C 1409.429688 540.484375 1402.980469 554.027344 1404.378906 570.898438 C 1405.621094 585.855469 1413.339844 596.8125 1426.191406 604.359375 C 1477.148438 634.292969 1532.171875 649.386719 1591.300781 650.140625 "/>
</g>
<path style=" stroke:none;fill-rule:evenodd;fill:rgb(100%,100%,100%);fill-opacity:1;" d="M 561.71875 51.214844 C 561.914063 63.789063 566.804688 74.195313 575.691406 83.066406 C 642.789063 150.058594 709.808594 217.128906 776.859375 284.171875 C 778.15625 285.46875 779.464844 286.761719 780.851563 287.960938 C 798.023438 302.804688 824.003906 301.488281 839.515625 285.011719 C 855.175781 268.375 854.835938 242.207031 838.683594 226.046875 C 770.535156 157.878906 702.378906 89.722656 634.210938 21.574219 C 621.949219 9.316406 603.988281 5.699219 588.082031 12.179688 C 572.320313 18.597656 561.859375 34.089844 561.71875 51.214844 "/>
<path style=" stroke:none;fill-rule:evenodd;fill:rgb(100%,100%,100%);fill-opacity:1;" d="M 1192.851563 51.628906 C 1192.621094 39.003906 1188.148438 28.226563 1178.710938 19.882813 C 1161.121094 4.34375 1136.289063 5.570313 1119.179688 22.664063 C 1051.851563 89.972656 984.539063 157.300781 917.226563 224.621094 C 916.203125 225.640625 915.210938 226.6875 914.257813 227.769531 C 898.863281 245.140625 900.246094 271.050781 917.410156 287.207031 C 933.609375 302.460938 959.777344 301.996094 975.761719 286.019531 C 1044.03125 217.796875 1112.269531 149.539063 1180.511719 81.285156 C 1188.699219 73.09375 1192.550781 63.078125 1192.851563 51.628906 "/>
<path style=" stroke:none;fill-rule:evenodd;fill:rgb(100%,100%,100%);fill-opacity:1;" d="M 603.996094 639.976563 C 615.40625 640.039063 625.429688 636.300781 633.496094 628.242188 C 702.082031 559.765625 770.636719 491.257813 839.089844 422.652344 C 856.335938 405.367188 854.683594 376.433594 835.945313 360.75 C 818.75 346.359375 794.1875 347.675781 777.867188 363.988281 C 717.941406 423.871094 658.050781 483.789063 598.144531 543.695313 C 590.167969 551.671875 582.011719 559.476563 574.257813 567.660156 C 561.484375 581.140625 558.339844 596.84375 565.140625 614.113281 C 571.363281 629.914063 586.84375 639.925781 603.996094 639.976563 "/>
<path style=" stroke:none;fill-rule:evenodd;fill:rgb(100%,100%,100%);fill-opacity:1;" d="M 1150.371094 639.976563 C 1167.738281 639.945313 1183.03125 629.820313 1189.589844 613.984375 C 1196.128906 598.214844 1192.691406 580.070313 1180.738281 568.113281 C 1112.328125 499.660156 1043.898438 431.214844 975.429688 362.8125 C 956.667969 344.074219 924.484375 347.84375 910.269531 370.28125 C 899.148438 387.84375 901.949219 409.25 917.492188 424.800781 C 984.433594 491.765625 1051.390625 558.710938 1118.339844 625.65625 C 1119.359375 626.675781 1120.421875 627.65625 1121.480469 628.632813 C 1129.640625 636.179688 1139.261719 639.976563 1150.371094 639.976563 "/>
<g clip-path="url(#clip2)" clip-rule="nonzero">
<path style=" stroke:none;fill-rule:evenodd;fill:rgb(100%,100%,100%);fill-opacity:1;" d="M 2563.070313 602.914063 C 2563.058594 577.644531 2542.710938 557.191406 2517.441406 557.0625 C 2491.949219 556.941406 2471.449219 577.335938 2471.449219 602.832031 C 2471.449219 628.457031 2491.679688 648.625 2517.359375 648.605469 C 2542.671875 648.585938 2563.078125 628.175781 2563.070313 602.914063 "/>
</g>
<path style=" stroke:none;fill-rule:evenodd;fill:rgb(13.699341%,12.199402%,12.5%);fill-opacity:1;" d="M 85.109375 552.078125 C 87.34375 552.078125 89.171875 552.078125 91 552.078125 C 195.78125 552.078125 300.566406 552.078125 405.351563 552.078125 C 429.703125 552.078125 447.761719 569.152344 449.035156 593.367188 C 450.207031 615.695313 430.5625 636.636719 408.15625 636.648438 C 285.800781 636.691406 163.445313 636.6875 41.089844 636.65625 C 19.0625 636.648438 0.488281 617.792969 0.0078125 595.179688 C -0.0078125 594.527344 0.00390625 593.867188 0.00390625 593.210938 C 0.00390625 414.203125 0.00390625 235.191406 0.0078125 56.183594 C 0.0078125 33.890625 14.449219 16.753906 36.371094 13.070313 C 38.296875 12.75 40.285156 12.691406 42.242188 12.691406 C 162.632813 12.675781 283.019531 12.671875 403.410156 12.679688 C 426.542969 12.679688 444.640625 30.3125 445.878906 54.011719 C 446.988281 75.207031 429.960938 94.640625 408.097656 97.058594 C 405.371094 97.363281 402.609375 97.511719 399.867188 97.511719 C 296.65625 97.53125 193.445313 97.53125 90.234375 97.53125 C 88.570313 97.53125 86.90625 97.53125 85.050781 97.53125 C 85.050781 158.492188 85.050781 219.039063 85.050781 280.214844 C 86.621094 280.214844 88.257813 280.214844 89.894531 280.214844 C 181.433594 280.214844 272.972656 280.210938 364.507813 280.214844 C 387.378906 280.21875 405.824219 297.5 407.074219 320.09375 C 408.335938 342.921875 391.789063 362.269531 368.933594 364.636719 C 366.203125 364.921875 363.441406 365.050781 360.695313 365.050781 C 270.601563 365.070313 180.503906 365.066406 90.410156 365.066406 C 88.726563 365.066406 87.039063 365.066406 85.109375 365.066406 C 85.109375 427.433594 85.109375 489.511719 85.109375 552.078125 "/>
<path style=" stroke:none;fill-rule:evenodd;fill:rgb(13.699341%,12.199402%,12.5%);fill-opacity:1;" d="M 2267.628906 644.933594 C 2181.300781 645.210938 2104.898438 617.101563 2037.109375 564.160156 C 2026.171875 555.613281 2019.539063 545.511719 2018.441406 531.632813 C 2017.191406 515.765625 2026.300781 499.140625 2040.730469 491.667969 C 2055.660156 483.933594 2073.71875 486.105469 2086.320313 496.875 C 2118.75 524.625 2154.480469 546.578125 2196.179688 557.402344 C 2234.558594 567.371094 2273.390625 570.410156 2312.589844 562.703125 C 2328.519531 559.570313 2343.570313 553.832031 2357.230469 544.960938 C 2386.300781 526.09375 2400.96875 499.699219 2399.21875 464.5625 C 2397.730469 434.609375 2382.859375 413.339844 2357.550781 398.578125 C 2337.449219 386.851563 2315.578125 379.605469 2293.191406 373.972656 C 2265.53125 367.003906 2237.589844 361.113281 2209.949219 354.03125 C 2176.898438 345.5625 2144.691406 334.625 2115.070313 317.21875 C 2089.261719 302.046875 2067.808594 282.511719 2054 255.464844 C 2043.5 234.914063 2038.929688 212.914063 2037.78125 190.011719 C 2036.351563 161.375 2040.621094 133.855469 2053.230469 107.910156 C 2070.011719 73.410156 2096.390625 48.347656 2130.011719 30.597656 C 2163.199219 13.082031 2198.839844 5.085938 2236.148438 4.054688 C 2275.699219 2.957031 2314.628906 7.015625 2352.570313 18.832031 C 2385.53125 29.09375 2415.75 44.769531 2443.578125 65.050781 C 2469.199219 83.722656 2468.308594 120.484375 2441.730469 135.511719 C 2425.671875 144.589844 2409.578125 143.539063 2394.460938 132.644531 C 2371.898438 116.398438 2347.921875 102.8125 2321.359375 94.28125 C 2284.058594 82.300781 2246.03125 78.65625 2207.339844 85.9375 C 2186.839844 89.796875 2167.941406 97.636719 2151.859375 111.285156 C 2130.410156 129.476563 2121.570313 152.796875 2123.039063 180.726563 C 2124.421875 206.855469 2135.980469 226.761719 2157.808594 240.699219 C 2165.289063 245.472656 2173.171875 249.761719 2181.238281 253.445313 C 2208.648438 265.964844 2237.648438 273.628906 2266.929688 280.148438 C 2301.46875 287.835938 2335.839844 295.960938 2368.738281 309.320313 C 2394.621094 319.835938 2419.019531 332.855469 2439.808594 351.886719 C 2467.460938 377.1875 2481.789063 408.832031 2484.890625 445.910156 C 2487.359375 475.488281 2484.28125 504.28125 2472.601563 531.785156 C 2455.890625 571.136719 2427.210938 599.207031 2389.628906 618.621094 C 2357.550781 635.203125 2323.121094 642.910156 2287.28125 644.878906 C 2280.75 645.242188 2274.179688 644.933594 2267.628906 644.933594 "/>
<path style=" stroke:none;fill-rule:evenodd;fill:rgb(13.699341%,12.199402%,12.5%);fill-opacity:1;" d="M 1266.289063 331.539063 C 1267.878906 238.640625 1297.171875 163.363281 1356.898438 100.617188 C 1406.878906 48.121094 1468.050781 15.867188 1539.550781 4.367188 C 1617.089844 -8.105469 1689.929688 6.222656 1757.660156 46.03125 C 1778.191406 58.097656 1784.898438 84.011719 1772.988281 104.136719 C 1760.890625 124.585938 1735.078125 131.246094 1714.480469 119.011719 C 1683.710938 100.730469 1650.601563 89.34375 1614.988281 86.117188 C 1551.371094 80.355469 1493.871094 96.839844 1443.550781 136.261719 C 1396.878906 172.828125 1367.519531 220.640625 1356.011719 278.824219 C 1345.808594 330.414063 1352.289063 380.25 1374.839844 427.847656 C 1378.089844 434.699219 1381.808594 441.34375 1385.601563 447.914063 C 1397.429688 468.375 1391.179688 494.105469 1371.351563 506.042969 C 1351.078125 518.257813 1325.371094 512.164063 1313 491.757813 C 1291.25 455.835938 1276.929688 417.074219 1270.769531 375.523438 C 1268.289063 358.84375 1267.320313 341.941406 1266.289063 331.539063 "/>
<g clip-path="url(#clip3)" clip-rule="nonzero">
<path style=" stroke:none;fill-rule:evenodd;fill:rgb(13.699341%,12.199402%,12.5%);fill-opacity:1;" d="M 1591.300781 650.140625 C 1532.171875 649.386719 1477.148438 634.292969 1426.191406 604.359375 C 1413.339844 596.8125 1405.621094 585.855469 1404.378906 570.898438 C 1402.980469 554.027344 1409.429688 540.484375 1423.671875 531.414063 C 1437.890625 522.363281 1453.03125 521.964844 1467.640625 530.429688 C 1488.398438 542.464844 1510.070313 552.332031 1533.441406 557.660156 C 1615.910156 576.449219 1689.460938 558.199219 1752.699219 502.039063 C 1794.53125 464.882813 1819.550781 417.703125 1828.320313 362.457031 C 1837.359375 305.496094 1826.71875 251.976563 1797.488281 202.207031 C 1782.078125 175.980469 1796.308594 144.078125 1826.050781 138.195313 C 1843.148438 134.8125 1860.839844 142.914063 1870.25 158.636719 C 1886.570313 185.890625 1899.21875 214.796875 1906.28125 245.761719 C 1932.199219 359.371094 1906.769531 460.28125 1828.261719 546.472656 C 1778.628906 600.96875 1716.078125 633.238281 1643.300781 645.425781 C 1637.878906 646.332031 1632.429688 647.1875 1626.960938 647.640625 C 1615.089844 648.621094 1603.191406 649.324219 1591.300781 650.140625 "/>
</g>
<path style=" stroke:none;fill-rule:evenodd;fill:rgb(13.699341%,12.199402%,12.5%);fill-opacity:1;" d="M 561.71875 51.214844 C 561.859375 34.089844 572.320313 18.597656 588.082031 12.179688 C 603.988281 5.699219 621.949219 9.316406 634.210938 21.574219 C 702.378906 89.722656 770.535156 157.878906 838.683594 226.046875 C 854.835938 242.207031 855.175781 268.375 839.515625 285.011719 C 824.003906 301.488281 798.023438 302.804688 780.851563 287.960938 C 779.464844 286.761719 778.15625 285.46875 776.859375 284.171875 C 709.808594 217.128906 642.789063 150.058594 575.691406 83.066406 C 566.804688 74.195313 561.914063 63.789063 561.71875 51.214844 "/>
<path style=" stroke:none;fill-rule:evenodd;fill:rgb(13.699341%,12.199402%,12.5%);fill-opacity:1;" d="M 1192.851563 51.628906 C 1192.550781 63.078125 1188.699219 73.09375 1180.511719 81.285156 C 1112.269531 149.539063 1044.03125 217.796875 975.761719 286.019531 C 959.777344 301.996094 933.609375 302.460938 917.410156 287.207031 C 900.246094 271.050781 898.863281 245.140625 914.257813 227.769531 C 915.210938 226.6875 916.203125 225.640625 917.226563 224.621094 C 984.539063 157.300781 1051.851563 89.972656 1119.179688 22.664063 C 1136.289063 5.570313 1161.121094 4.34375 1178.710938 19.882813 C 1188.148438 28.226563 1192.621094 39.003906 1192.851563 51.628906 "/>
<path style=" stroke:none;fill-rule:evenodd;fill:rgb(13.699341%,12.199402%,12.5%);fill-opacity:1;" d="M 603.996094 639.976563 C 586.84375 639.925781 571.363281 629.914063 565.140625 614.113281 C 558.339844 596.84375 561.484375 581.140625 574.257813 567.660156 C 582.011719 559.476563 590.167969 551.671875 598.144531 543.695313 C 658.050781 483.789063 717.941406 423.871094 777.867188 363.988281 C 794.1875 347.675781 818.75 346.359375 835.945313 360.75 C 854.683594 376.433594 856.335938 405.367188 839.089844 422.652344 C 770.636719 491.257813 702.082031 559.765625 633.496094 628.242188 C 625.429688 636.300781 615.40625 640.039063 603.996094 639.976563 "/>
<path style=" stroke:none;fill-rule:evenodd;fill:rgb(13.699341%,12.199402%,12.5%);fill-opacity:1;" d="M 1150.371094 639.976563 C 1139.261719 639.976563 1129.640625 636.179688 1121.480469 628.632813 C 1120.421875 627.65625 1119.359375 626.675781 1118.339844 625.65625 C 1051.390625 558.710938 984.433594 491.765625 917.492188 424.800781 C 901.949219 409.25 899.148438 387.84375 910.269531 370.28125 C 924.484375 347.84375 956.667969 344.074219 975.429688 362.8125 C 1043.898438 431.214844 1112.328125 499.660156 1180.738281 568.113281 C 1192.691406 580.070313 1196.128906 598.214844 1189.589844 613.984375 C 1183.03125 629.820313 1167.738281 639.945313 1150.371094 639.976563 "/>
<g clip-path="url(#clip4)" clip-rule="nonzero">
<path style=" stroke:none;fill-rule:evenodd;fill:rgb(13.699341%,12.199402%,12.5%);fill-opacity:1;" d="M 2515.789063 563.125 C 2492.640625 564.460938 2476.28125 582.949219 2477.640625 606.234375 C 2478.859375 627.078125 2498.058594 643.769531 2519.410156 642.542969 C 2539.730469 641.375 2557.660156 624.808594 2556.910156 601.863281 C 2556.171875 579.15625 2537.210938 561.886719 2515.789063 563.125 Z M 2563.070313 602.914063 C 2563.078125 628.175781 2542.671875 648.585938 2517.359375 648.605469 C 2491.679688 648.625 2471.449219 628.457031 2471.449219 602.832031 C 2471.449219 577.335938 2491.949219 556.941406 2517.441406 557.0625 C 2542.710938 557.191406 2563.058594 577.644531 2563.070313 602.914063 "/>
</g>
<path style=" stroke:none;fill-rule:evenodd;fill:rgb(100%,100%,100%);fill-opacity:1;" d="M 2504.5 610.046875 C 2507.019531 610.046875 2509.019531 610.328125 2510.910156 609.996094 C 2517.820313 608.78125 2522.449219 611.398438 2526.011719 617.40625 C 2528.730469 621.992188 2532.289063 626.132813 2535.859375 630.132813 C 2536.808594 631.207031 2539.53125 631.847656 2540.78125 631.269531 C 2543 630.25 2542.511719 628.097656 2541.019531 626.324219 C 2540.261719 625.425781 2539.578125 624.460938 2538.859375 623.527344 C 2535.21875 618.824219 2531.578125 614.121094 2527.839844 609.300781 C 2528.691406 608.867188 2529.011719 608.644531 2529.371094 608.527344 C 2538.558594 605.464844 2542.738281 600 2542.25 591.695313 C 2541.769531 583.628906 2536.609375 577.792969 2527.289063 576.699219 C 2519.269531 575.761719 2511.078125 576.3125 2502.96875 576.042969 C 2499.390625 575.925781 2498.128906 577.394531 2498.160156 580.941406 C 2498.28125 596.40625 2498.21875 611.875 2498.199219 627.335938 C 2498.191406 629.726563 2498.320313 632.09375 2501.488281 631.992188 C 2504.320313 631.894531 2504.539063 629.707031 2504.519531 627.441406 C 2504.46875 621.820313 2504.5 616.203125 2504.5 610.046875 Z M 2515.789063 563.125 C 2537.210938 561.886719 2556.171875 579.15625 2556.910156 601.863281 C 2557.660156 624.808594 2539.730469 641.375 2519.410156 642.542969 C 2498.058594 643.769531 2478.859375 627.078125 2477.640625 606.234375 C 2476.28125 582.949219 2492.640625 564.460938 2515.789063 563.125 "/>
<path style=" stroke:none;fill-rule:evenodd;fill:rgb(13.699341%,12.199402%,12.5%);fill-opacity:1;" d="M 2504.640625 604.253906 C 2511.289063 604.253906 2517.679688 604.359375 2524.050781 604.179688 C 2525.820313 604.128906 2527.648438 603.433594 2529.300781 602.691406 C 2533.621094 600.757813 2535.980469 596.804688 2535.710938 592.371094 C 2535.429688 587.804688 2532.871094 583.859375 2528 583.175781 C 2520.351563 582.09375 2512.550781 582.066406 2504.640625 581.582031 C 2504.640625 589.667969 2504.640625 596.722656 2504.640625 604.253906 Z M 2504.5 610.046875 C 2504.5 616.203125 2504.46875 621.820313 2504.519531 627.441406 C 2504.539063 629.707031 2504.320313 631.894531 2501.488281 631.992188 C 2498.320313 632.09375 2498.191406 629.726563 2498.199219 627.335938 C 2498.21875 611.875 2498.28125 596.40625 2498.160156 580.941406 C 2498.128906 577.394531 2499.390625 575.925781 2502.96875 576.042969 C 2511.078125 576.3125 2519.269531 575.761719 2527.289063 576.699219 C 2536.609375 577.792969 2541.769531 583.628906 2542.25 591.695313 C 2542.738281 600 2538.558594 605.464844 2529.371094 608.527344 C 2529.011719 608.644531 2528.691406 608.867188 2527.839844 609.300781 C 2531.578125 614.121094 2535.21875 618.824219 2538.859375 623.527344 C 2539.578125 624.460938 2540.261719 625.425781 2541.019531 626.324219 C 2542.511719 628.097656 2543 630.25 2540.78125 631.269531 C 2539.53125 631.847656 2536.808594 631.207031 2535.859375 630.132813 C 2532.289063 626.132813 2528.730469 621.992188 2526.011719 617.40625 C 2522.449219 611.398438 2517.820313 608.78125 2510.910156 609.996094 C 2509.019531 610.328125 2507.019531 610.046875 2504.5 610.046875 "/>
<path style=" stroke:none;fill-rule:evenodd;fill:rgb(100%,100%,100%);fill-opacity:1;" d="M 2504.640625 604.253906 C 2504.640625 596.722656 2504.640625 589.667969 2504.640625 581.582031 C 2512.550781 582.066406 2520.351563 582.09375 2528 583.175781 C 2532.871094 583.859375 2535.429688 587.804688 2535.710938 592.371094 C 2535.980469 596.804688 2533.621094 600.757813 2529.300781 602.691406 C 2527.648438 603.433594 2525.820313 604.128906 2524.050781 604.179688 C 2517.679688 604.359375 2511.289063 604.253906 2504.640625 604.253906 "/>
</g>
</svg>
