<svg id="logosandtypes_com" xmlns="http://www.w3.org/2000/svg" viewBox="0 0 150 150.2"><style>.st0{fill:none}.st1{fill:#02509a}.st2{fill:#fff}</style><g id="Layer_3_2_"><g id="Layer_2_1_"><path id="Layer_3" class="st0" d="M0 .2h150v150H0V.2z"/></g></g><g id="nationwide"><path class="st1" d="M101.7 32.6v50.6L93.3 75v21.5c0 4.1-.4 6.6-2.1 8.8-.1.1-.2.2-.2.3l8.7 8.2h24.6V32.6h-22.6zM60.8 64.9c2.2 8.4 7 11.4 7 11.4-3.2-4.6-10-20.7-3.5-27.9C66 64.6 72.8 70 72.8 70c-2.7-4.3-5.6-13-6.6-21.4l-16.4-16H25.4v81.1h22.5l.3-48.7 13.7 13c-1.8-4.7-2.9-10.3-1.1-13.1z"/><path class="st0" d="M86.9 111.3c-.1.1-.1.3-.2.4.1-.2.1-.3.2-.4zM86.2 113.2c0 .1-.1.2-.1.4 0-.1 0-.2.1-.4zM86 114.2v-.3V114.2zM87.2 110.6c-.1.1-.1.3-.2.4.1-.1.2-.3.2-.4zM86.4 112.6c0 .1-.1.3-.1.4 0-.2 0-.3.1-.4zM86.6 111.9c-.1.1-.1.3-.2.4.1-.1.1-.2.2-.4zM88.1 109.3c-.1.1-.2.2-.2.4 0-.2.1-.3.2-.4zM87.6 109.9c-.1.1-.2.3-.2.4.1-.1.2-.2.2-.4z"/><path class="st1" d="M86 114.2v-.1.1zM115.6 122.4c-.3-1.3-1.5-2.9-3.4-3.2-3.9-.6-20.1-1.8-20.5-1.9-1.4-.1-6.1-1-1.8-7.1.3-.5 1.1-1.5 1.1-1.5.7-.8 1.3-1.6 1.7-2.1v-.1c2.4-2.9 2.5-6.4 2.5-10 0-21.5-.1-42.8-.1-60-.1-23.7 2.8-34.9 2.8-34.9-7.6 0-11.6 7.2-12.4 9.3-4.3.5-7.8 2.9-10.1 7.7-1.3 2.7-2 5.3-2.2 6.6-9 2.1-9.8 18.1-9.2 21l-.1-.1-.9 1c-3.6 4-3.6 10-2.7 15.1l-1 1.7c-1.7 2.8-1.4 7.5-.3 11.5.9 2.6 1.8 3.8 1.8 3.8l-4.3-3.7c-.8 8 1.5 12 3.5 15.1l-5.2-4.4c-.4 7.9 3.4 12.8 5.8 14.8l-6.9-3.4c-.5 4.7 4.3 11.7 7 13l-5.8-.9c1.3 6.5 5.8 8.9 5.8 8.9s-9.9-.2-14.4-.2c-12.7 0-21 1.2-21 1.2s5.6 5.6 12.8 5.8l-6.4 3.9c4.6 1.5 9 1 9 1l-3.7 4.4s11.6-4.5 16.5-4.1c3.9.3 22.1 7.4 34.3 7.4 8.2 0 14.1-3.1 18.9-5.7 2.9-1.5 5.4-2.8 7.9-3.2 4.4-.7 6.4.9 6.4.9.4-1.7 1.8-6.4-5.4-7.6zm-22.9 13.3c-1.5.3-3.2.4-4.9.4-12.5 0-29.9-7.4-34.2-7.4-5.2-.1-11.7 2.9-11.7 2.9l3.4-3.7s-4.5.9-8.8.5l6.1-4.1c-5.3-.2-10-1.8-12.2-3.3 0 0 9.8-.8 23.2-.6 5.4.1 14.5.6 14.5.6-4.5-1.9-8.8-4.5-10.6-8.9l8.6 1.3c-3.6-2.2-8.9-7.8-9.8-12.1l9.6 3.4c-1.7-1.9-7.7-7.4-8.7-13.9l7.6 4.8c-2-2-7.4-12.7-6.5-15.8l7.1 4.8C62 80.4 58 69.3 60.7 64.9c2.2 8.4 7 11.4 7 11.4-3.2-4.6-10-20.7-3.5-27.9C66 64.6 72.8 70 72.8 70c-5.7-9-12.1-36.8-.1-42.4C70.3 45.4 76 55.1 76 55.1c-3.6-16.4-3.5-39.7 8.7-41.9-6 17.6-1.7 31.1-1.7 31.1C82.2 3.3 95.4 4 95.4 4s-2.2 11.7-2.2 32.5v60c0 4.1-.4 6.6-2.1 8.8-1 1.2-2.2 2.6-3.1 4-.1.1-.2.2-.2.4-.1.1-.1.2-.2.3-.1.1-.2.3-.2.4-.1.1-.1.2-.2.3-.1.1-.1.3-.2.4 0 .1-.1.2-.1.3-.1.1-.1.3-.2.4 0 .1-.1.2-.1.3-.1.1-.1.3-.2.4 0 .1-.1.2-.1.3 0 .1-.1.3-.1.4 0 .1 0 .2-.1.3 0 .1-.1.2-.1.4v.6c0 .4 0 .7.1 1.1.2.9.8 1.7 1.5 2.4.2.2.4.3.6.5 1 .8 1.9 1.2 1.9 1.2l7.6 4.1-4.9 4.3 5.9 1.9c0-.4-5.4 5.1-6 5.7zm27-7.9c-.4-.3-.9-.4-1.4-.5-1.5-.3-3.4-.1-4.1.1-2.8.5-5.4 1.7-8.5 3.4-.4.2-.9.5-1.4.7-2.4 1.3-5 2.5-8 3.4.9-.8 2.5-2.6 3.8-4 .3-.3.6-.6.8-.9.6-.6 1-1.1 1-1.1l-5.4-1.9 2.1-1.8 2.3-2-6.8-3.7c1 .1 2 .2 2.9.2.6.1 1.3.1 1.9.2 2 .2 3.8.3 5.4.4 2.7.2 5.1.5 7.5.8.6.1 1.1.5 1.4.9.4.6.7 1.3.8 1.7-1.8-.5-4.7-.6-4.7-.6l-.2 1.7s2.2-.6 4.7-.7h1c1.5.1 5.1.7 4.9 3.7z"/><path class="st1" d="M87.6 117.7c.2.2.4.3.6.5-.2-.2-.4-.3-.6-.5zM96.4 134.8c3-.9 5.6-2.2 8-3.4-2.4 1.2-5 2.5-8 3.4zM119.7 127.8c-.4-.3-.9-.4-1.4-.5.5.1 1 .2 1.4.5zM96.6 127l2.1-1.9zM94.2 119.4l6.8 3.7zM114.1 123.7c-.1-.4-.3-1.1-.8-1.7.5.5.7 1.2.8 1.7zM113.9 124.1c-2.5.1-4.6.7-4.7.7.1 0 2.2-.6 4.7-.7zM94.2 119.4c1 .1 2 .2 2.9.2-.9 0-1.9-.1-2.9-.2z"/><path class="st2" d="M86 114.1v-.2-.3c0-.1 0-.2.1-.4 0-.1 0-.2.1-.3 0-.1.1-.3.1-.4 0-.1.1-.2.1-.3 0-.1.1-.3.2-.4 0-.1.1-.2.1-.3.1-.1.1-.3.2-.4 0-.1.1-.2.1-.3.1-.1.1-.3.2-.4.1-.1.1-.2.2-.3.1-.1.2-.3.2-.4.1-.1.1-.2.2-.3.1-.1.2-.2.2-.4.1-.1.1-.2.2-.2-1.2 2-2.1 3.7-2.2 5.3zM86 114.3c0-.1 0-.1 0 0 0-.1 0 0 0 0z"/><path class="st2" d="M87.4 110.3c-.1.1-.1.2-.2.3.1-.1.2-.2.2-.3zM87.8 109.7c-.1.1-.1.2-.2.3.1-.1.1-.2.2-.3zM86.4 112.3c0 .1-.1.2-.1.3.1-.1.1-.2.1-.3zM86.2 113c0 .1 0 .2-.1.3.1-.1.1-.2.1-.3zM86.7 111.7c0 .1-.1.2-.1.3 0-.2.1-.2.1-.3zM87 111c0 .1-.1.2-.1.3 0-.1.1-.2.1-.3zM86.1 113.6v0zM100.2 130.8c-1.3 1.4-3 3.2-3.8 4 .9-.8 2.5-2.6 3.8-4zM101 123.1l-2.3 2 2.3-2zM104.4 131.4c.5-.2.9-.5 1.4-.7 3.1-1.6 5.7-2.9 8.5-3.4-2.8.5-5.4 1.7-8.5 3.4-.5.2-.9.4-1.4.7zM114.2 127.3c.7-.1 2.6-.4 4.1-.1-1.5-.2-3.4 0-4.1.1zM114.9 124.1c1.4.1 5 .7 4.8 3.7.2-3-3.4-3.6-4.8-3.7zM100.2 130.8c.3-.3.6-.6.8-.9-.2.3-.5.6-.8.9zM96.6 127l5.4 1.8-5.4-1.8zM104.4 120.3c-1.6-.1-3.4-.3-5.4-.4-.6 0-1.3-.1-1.9-.2.6.1 1.3.1 1.9.2 2 .1 3.8.2 5.4.4zM113.4 122c-.3-.5-.8-.8-1.4-.9-2.4-.3-4.7-.5-7.5-.8 2.7.2 5.1.5 7.5.8.6 0 1 .4 1.4.9zM109.3 124.8l.2-1.7s2.9.1 4.7.6c-1.8-.5-4.7-.6-4.7-.6l-.2 1.7z"/></g></svg>