<?xml version="1.0" encoding="UTF-8"?><svg id="Layer_1" xmlns="http://www.w3.org/2000/svg" viewBox="0 0 479.11 355.02"><defs><style>.cls-1{fill:#fff;}</style></defs><path class="cls-1" d="M176.95,138.65l.08,.14c4.63,7.42,12.6,11.5,20.75,11.5,4.42,0,8.89-1.2,12.91-3.71,11.45-7.14,14.94-22.21,7.79-33.66L155.16,11.58C148.01,.14,132.94-3.34,121.5,3.81c-11.44,7.15-14.92,22.22-7.77,33.66l63.22,101.17"/><path class="cls-1" d="M273.12,34.43C273.12,15.48,257.75,.11,238.79,.11s-34.32,15.37-34.32,34.32c0,6.69,1.92,12.93,5.23,18.21h0s29.1,46.57,29.1,46.57l29.14-46.63h0c3.28-5.27,5.19-11.48,5.19-18.14Z"/><path class="cls-1" d="M356.09,3.72c-11.44-7.15-26.51-3.67-33.66,7.77l-63.41,101.48c-7.15,11.44-3.67,26.51,7.77,33.66,4.03,2.52,8.5,3.72,12.92,3.72,8.14,0,16.11-4.07,20.74-11.49l63.41-101.48c7.15-11.44,3.67-26.51-7.77-33.66Z"/><g><path class="cls-1" d="M36.53,309.47L0,199.25H31.8l20.41,71.77,22.78-71.77h24.5l22.78,71.77,20.41-71.77h31.8l-36.53,110.23h-29.65l-21.06-65.11-21.06,65.11h-29.65Z"/><path class="cls-1" d="M197.25,295.4c-11.17-11.1-16.76-24.82-16.76-41.15s5.55-30.01,16.65-41.04c11.1-11.03,25.1-16.54,42.01-16.54,20.05,0,35.52,8.31,46.41,24.92l-21.7,19.12c-5.73-10.02-13.75-15.04-24.07-15.04-7.59,0-13.86,2.72-18.8,8.17-4.94,5.45-7.41,12.25-7.41,20.41s2.47,15.36,7.41,20.73c4.94,5.37,11.35,8.06,19.23,8.06,9.31,0,17.55-4.51,24.71-13.54l20.84,18.91c-5.16,7.31-11.75,13.07-19.77,17.3-8.02,4.22-16.9,6.34-26.64,6.34-16.9,0-30.94-5.55-42.11-16.65Z"/><path class="cls-1" d="M292.86,325.16c0-9.74,5.8-16.97,17.4-21.7-5.88-4.01-8.81-9.45-8.81-16.33,0-7.59,4.65-13.97,13.97-19.12-12.61-7.88-18.91-18.62-18.91-32.23,0-10.88,4.48-20.12,13.43-27.72,8.95-7.59,19.95-11.39,32.98-11.39,5.01,0,10.02,.86,15.04,2.58h45.12v24.28h-16.33c1.72,3.87,2.58,7.95,2.58,12.25,0,11.17-4.51,20.52-13.54,28.04-9.02,7.52-20.13,11.28-33.3,11.28-2.72,0-4.73-.07-6.02-.21-4.44,1.72-6.66,3.87-6.66,6.45,0,3.73,2.93,5.59,8.81,5.59h27.5c11.31,0,20.48,3.05,27.5,9.13,7.02,6.09,10.53,13.93,10.53,23.53,0,10.17-5.3,18.62-15.9,25.35-10.6,6.73-24.49,10.1-41.68,10.1-16.19,0-29.19-2.72-39-8.17-9.81-5.45-14.72-12.68-14.72-21.7Zm31.59-4.94c0,3.29,2.04,5.84,6.12,7.63,4.08,1.79,9.49,2.69,16.22,2.69,17.05,0,25.57-3.51,25.57-10.53,0-2.72-1.18-4.83-3.55-6.34s-5.19-2.26-8.49-2.26h-29.22c-4.44,2.15-6.66,5.08-6.66,8.81Zm.86-84.44c0,4.3,1.68,7.99,5.05,11.07,3.36,3.08,7.55,4.62,12.57,4.62s9.02-1.54,12.46-4.62c3.44-3.08,5.16-6.77,5.16-11.07s-1.69-8.13-5.05-11.07c-3.37-2.93-7.56-4.4-12.57-4.4s-9.21,1.47-12.57,4.4c-3.37,2.94-5.05,6.63-5.05,11.07Z"/></g><g><path class="cls-1" d="M440.31,202.57h-7.25v-3.08h17.89v3.08h-7.25v21.07h-3.39v-21.07Z"/><path class="cls-1" d="M454.95,223.65v-24.15h3.11l8.96,14.33,8.96-14.33h3.11v24.15h-3.39v-17.72l-7.63,11.87h-2.12l-7.63-11.87v17.72h-3.39Z"/></g></svg>